<svg width="105" height="26" viewBox="0 0 105 26" fill="none" xmlns="http://www.w3.org/2000/svg">
<path fill-rule="evenodd" clip-rule="evenodd" d="M0.69447 1.22543C0.421372 1.51895 0.264404 1.97071 0.264404 2.55774V23.4383C0.264404 24.0253 0.421372 24.477 0.704679 24.7604L0.778696 24.8229L12.4785 13.1231V12.8602L0.768487 1.1629L0.69447 1.22543Z" fill="url(#paint0_linear_104_2)"/>
<path fill-rule="evenodd" clip-rule="evenodd" d="M16.3708 17.0383L12.4683 13.1345V12.8614L16.372 8.95767L16.4563 9.01L21.0734 11.6338C22.3955 12.3791 22.3955 13.6067 21.0734 14.3622L16.4563 16.986C16.455 16.986 16.3708 17.0383 16.3708 17.0383Z" fill="url(#paint1_linear_104_2)"/>
<path fill-rule="evenodd" clip-rule="evenodd" d="M16.455 16.986L12.4683 12.998L0.694458 24.7719C1.12452 25.2338 1.84811 25.2862 2.65719 24.8344L16.455 16.986Z" fill="url(#paint2_linear_104_2)"/>
<path fill-rule="evenodd" clip-rule="evenodd" d="M16.455 9.01128L2.65719 1.17312C1.84938 0.711147 1.12452 0.773679 0.694458 1.23565L12.467 12.998L16.455 9.01128Z" fill="url(#paint3_linear_104_2)"/>
<path opacity="0.2" fill-rule="evenodd" clip-rule="evenodd" d="M16.3708 16.9018L2.66744 24.6876C1.90175 25.1279 1.219 25.0973 0.778729 24.6978L0.704712 24.7718L0.778729 24.8344C1.219 25.2325 1.90175 25.2644 2.66744 24.8242L16.4653 16.986L16.3708 16.9018Z" fill="black"/>
<path opacity="0.12" fill-rule="evenodd" clip-rule="evenodd" d="M21.0722 14.2257L16.3606 16.9018L16.4448 16.986L21.062 14.3622C21.723 13.9845 22.0484 13.4919 22.0484 12.998C22.0063 13.4498 21.6707 13.8798 21.0722 14.2257Z" fill="black"/>
<path opacity="0.25" fill-rule="evenodd" clip-rule="evenodd" d="M2.6572 1.30966L21.0722 11.7716C21.6707 12.1072 22.0063 12.5475 22.0586 12.9993C22.0586 12.5067 21.7332 12.0128 21.0722 11.6351L2.6572 1.17312C1.3351 0.417629 0.264404 1.04678 0.264404 2.55775V2.6943C0.264404 1.18332 1.3351 0.564388 2.6572 1.30966Z" fill="white"/>
<path fill-rule="evenodd" clip-rule="evenodd" d="M26.5533 12.3357C26.5533 8.99087 29.3647 6.26755 32.7095 6.26755C34.5587 6.26755 35.8744 6.99368 36.8672 7.93932L35.6983 9.10828C34.9887 8.44212 34.0265 7.92528 32.7082 7.92528C30.2657 7.92528 28.3565 9.89184 28.3565 12.3344C28.3565 14.777 30.2657 16.7461 32.707 16.7461C34.2907 16.7461 35.1917 16.1106 35.7698 15.5312C36.2432 15.0577 36.5533 14.3775 36.6733 13.4447H32.7095V11.7908H38.2889C38.3476 12.0868 38.3782 12.4416 38.3782 12.8257C38.3782 14.0674 38.0375 15.6078 36.9413 16.704C35.8744 17.8142 34.514 18.4064 32.7082 18.4064C29.3622 18.4064 26.5508 15.6856 26.5508 12.3382L26.5533 12.3357ZM42.8882 10.5899C40.7276 10.5899 38.964 12.2336 38.964 14.4962C38.964 16.7474 40.7264 18.4025 42.8882 18.4025C45.05 18.4025 46.8098 16.7448 46.8098 14.4949C46.8098 12.2323 45.0487 10.5886 42.8882 10.5899ZM42.8882 16.866C41.7052 16.866 40.683 15.8898 40.683 14.4975C40.683 13.0912 41.7039 12.1289 42.8882 12.1289C44.0712 12.1289 45.0921 13.0899 45.0921 14.4975C45.0921 15.8885 44.0724 16.866 42.8882 16.866ZM51.4448 10.5899C49.2843 10.5899 47.5232 12.2336 47.5232 14.4962C47.5232 16.7474 49.2843 18.4025 51.4448 18.4025C53.6054 18.4025 55.3664 16.7448 55.3664 14.4949C55.3664 12.2323 53.6066 10.5886 51.4448 10.5899ZM51.4448 16.866C50.2618 16.866 49.2396 15.8898 49.2396 14.4975C49.2396 13.0912 50.2605 12.1289 51.4448 12.1289C52.6278 12.1289 53.65 13.0899 53.65 14.4975C53.65 15.8885 52.6278 16.866 51.4448 16.866ZM61.9463 10.8273V11.4628H61.8876C61.5035 11.0021 60.7633 10.5886 59.8317 10.5886C57.8779 10.5886 56.0849 12.3063 56.0849 14.5128C56.0849 16.7014 57.8767 18.4051 59.8317 18.4051C60.7633 18.4051 61.5035 17.9916 61.8876 17.5182H61.9463V18.0797C61.9463 19.5741 61.1474 20.3742 59.8598 20.3742C58.8083 20.3742 58.1574 19.6187 57.8907 18.9845L56.395 19.606C56.8238 20.6409 57.9647 21.9145 59.8585 21.9145C61.8698 21.9145 63.5722 20.729 63.5722 17.8436V10.826L61.9463 10.8273ZM59.9785 16.866C58.7955 16.866 57.8014 15.8732 57.8014 14.5128C57.8014 13.1371 58.7942 12.1302 59.9785 12.1302C61.1475 12.1302 62.065 13.1358 62.065 14.5128C62.0663 15.8732 61.1487 16.866 59.9785 16.866ZM64.7577 6.6823H66.4754V18.1677H64.7577V6.6823ZM71.1832 16.866C70.3103 16.866 69.6875 16.4653 69.2906 15.683L74.5152 13.52L74.3353 13.0759C74.0111 12.2042 73.0183 10.5899 70.9905 10.5899C68.978 10.5899 67.3049 12.1736 67.3049 14.4975C67.3049 16.6861 68.9627 18.4038 71.1832 18.4038C72.9749 18.4038 74.0111 17.3102 74.4399 16.6721L73.1076 15.7851C72.6622 16.4373 72.0548 16.8673 71.1832 16.866ZM71.0492 12.0996C71.7294 12.0996 72.3062 12.4403 72.4989 12.9278L69.0048 14.3788C68.9614 12.8691 70.175 12.0996 71.0492 12.0996Z" fill="#808285"/>
<path fill-rule="evenodd" clip-rule="evenodd" d="M82.0522 6.68231H77.9456V18.1677H79.6594V13.8173H82.0535C83.9537 13.8173 85.822 12.4416 85.822 10.2492C85.822 8.06056 83.955 6.68359 82.0561 6.68359L82.0522 6.68231ZM82.0969 12.2183H79.6594V8.28006H82.0969C83.3782 8.28006 84.1081 9.3431 84.1081 10.2492C84.1081 11.1399 83.3782 12.2183 82.0969 12.2183ZM88.4802 18.1677V6.68231H86.7664V18.1677H88.4802ZM96.1793 18.1473V13.7446C96.1793 11.7053 94.6556 10.5682 92.689 10.5682C91.4499 10.5682 90.1648 11.1157 89.6326 12.3268L91.1538 12.961C91.4792 12.3268 92.0841 12.1187 92.7209 12.1187C93.6066 12.1187 94.5075 12.6509 94.5216 13.5978V13.7165C94.2115 13.5391 93.5479 13.2724 92.7337 13.2724C91.0938 13.2724 89.4246 14.1734 89.4246 15.8579C89.4246 17.3957 90.7697 18.3847 92.2768 18.3847C93.4305 18.3847 94.0647 17.8678 94.4629 17.2629H94.5216V18.1499H96.178L96.1793 18.1473ZM92.4848 16.8635C91.9233 16.8635 91.1398 16.5828 91.1398 15.8898C91.1398 15.0029 92.116 14.6609 92.9583 14.6609C93.7125 14.6609 94.066 14.8229 94.5254 15.045C94.394 16.0761 93.5224 16.8507 92.4848 16.8635ZM102.207 10.8196L100.241 15.7979H100.183L98.1433 10.8196H96.2967L99.3544 17.7798L97.6099 21.6504H99.3978L104.111 10.8196H102.207Z" fill="#808285"/>
<defs>
<linearGradient id="paint0_linear_104_2" x1="11.4279" y1="2.3333" x2="-7.31317" y2="7.32688" gradientUnits="userSpaceOnUse">
<stop stop-color="#00A0FF"/>
<stop offset="0.007" stop-color="#00A1FF"/>
<stop offset="0.26" stop-color="#00BEFF"/>
<stop offset="0.512" stop-color="#00D2FF"/>
<stop offset="0.76" stop-color="#00DFFF"/>
<stop offset="1" stop-color="#00E3FF"/>
</linearGradient>
<linearGradient id="paint1_linear_104_2" x1="22.7938" y1="12.9986" x2="-0.0569705" y2="12.9986" gradientUnits="userSpaceOnUse">
<stop stop-color="#FFE000"/>
<stop offset="0.409" stop-color="#FFBD00"/>
<stop offset="0.775" stop-color="#FFA500"/>
<stop offset="1" stop-color="#FF9C00"/>
</linearGradient>
<linearGradient id="paint2_linear_104_2" x1="14.2872" y1="15.1675" x2="-0.758269" y2="40.4899" gradientUnits="userSpaceOnUse">
<stop stop-color="#FF3A44"/>
<stop offset="1" stop-color="#C31162"/>
</linearGradient>
<linearGradient id="paint3_linear_104_2" x1="-2.26931" y1="-5.72043" x2="4.44291" y2="5.58897" gradientUnits="userSpaceOnUse">
<stop stop-color="#32A071"/>
<stop offset="0.069" stop-color="#2DA771"/>
<stop offset="0.476" stop-color="#15CF74"/>
<stop offset="0.801" stop-color="#06E775"/>
<stop offset="1" stop-color="#00F076"/>
</linearGradient>
</defs>
</svg>
